<svg id="Layer_1" data-name="Layer 1" xmlns="http://www.w3.org/2000/svg" viewBox="0 0 198 179"><defs><style>.cls-1,.cls-2{fill:none;stroke:#e6e6e6;stroke-linejoin:round;stroke-width:2px;}.cls-2{stroke-dasharray:3 6;}</style></defs><title>logo-42</title><circle class="cls-1" cx="97.8" cy="91.92" r="25.64"/><line class="cls-2" x1="98" y1="30" x2="98" y2="150"/><path class="cls-1" d="M104.29,87.92c-1.14.28,1.85-2.7,5.55-2.7,4.4,0,6.6,2.7,5.85,2.7-3.15,0-2.55,1.35-5.65,1.35C106.57,89.27,107.34,87.17,104.29,87.92Z"/><path class="cls-1" d="M119,86c-3-2.7-9.47-6.68-14.39-3.15S101.4,98,101.4,98s-1.48-.74-1.65,0a1.64,1.64,0,0,1-1.95,1.35"/><path class="cls-1" d="M93.75,111.91a6,6,0,0,1,4-1.5,6.94,6.94,0,0,1,4.25,1.5"/><path class="cls-1" d="M108.49,85.32c-1.39,1.57-.54,3.81,1.5,3.8a2.23,2.23,0,0,0,1.75-3.65"/><path class="cls-1" d="M91.61,87.92c1.14.28-1.85-2.7-5.55-2.7-4.4,0-6.6,2.7-5.85,2.7,3.15,0,2.55,1.35,5.65,1.35C89.33,89.27,88.57,87.17,91.61,87.92Z"/><path class="cls-1" d="M76.92,86c3-2.7,9.47-6.68,14.39-3.15S94.5,98,94.5,98s1.48-.74,1.65,0a1.64,1.64,0,0,0,1.95,1.35"/><path class="cls-1" d="M87.42,85.32c1.39,1.57.54,3.81-1.5,3.8a2.23,2.23,0,0,1-1.75-3.65"/><path class="cls-1" d="M97.91,105c1.1.15,1.4-.75,2.15-.6a18.73,18.73,0,0,0,4.65.76c2.1,0,2.7,0,2.7,0s-4.35,1-6,.59-2.4.6-3.6.6"/><path class="cls-1" d="M97.7,105c-1.1.15-1.4-.75-2.15-.6a18.73,18.73,0,0,1-4.65.76c-2.1,0-2.7,0-2.7,0s4.35,1,6,.59,2.4.6,3.6.6"/><path class="cls-1" d="M93.61,107.26a7.51,7.51,0,0,0,4,1,8.76,8.76,0,0,0,4.25-1"/><rect class="cls-1" x="59.77" y="52.17" width="76.06" height="76.06" transform="translate(-27.3 44.93) rotate(-22.79)"/><rect class="cls-1" x="59.77" y="52.17" width="76.06" height="76.06" transform="translate(-22.67 146.65) rotate(-67.79)"/><rect class="cls-1" x="59.77" y="52.17" width="76.06" height="76.06" transform="translate(-22.67 146.65) rotate(-67.79)"/><rect class="cls-1" x="59.77" y="52.17" width="76.06" height="76.06" transform="translate(-35.13 95.58) rotate(-45)"/><polyline class="cls-2" points="73.99 67.83 59.95 52.46 50.35 41.46"/><line class="cls-1" x1="71.77" y1="65.34" x2="59.95" y2="52.46"/><polyline class="cls-2" points="124.6 115.99 135.7 128.14 146.58 140.09"/><line class="cls-1" x1="130.86" y1="122.86" x2="135.7" y2="128.14"/><polyline class="cls-2" points="64.93 95.08 44.14 94.14 29.57 93.15"/><line class="cls-1" x1="61.6" y1="94.89" x2="44.14" y2="94.14"/><polyline class="cls-2" points="134.78 93.35 151.22 94.09 167.36 94.85"/><line class="cls-1" x1="144.06" y1="93.78" x2="151.22" y2="94.09"/><polyline class="cls-2" points="72.13 114.89 54.87 126.54 42.59 134.43"/><line class="cls-1" x1="69.35" y1="116.72" x2="54.87" y2="126.54"/><polyline class="cls-2" points="127.15 71.84 140.79 62.63 154.2 53.61"/><line class="cls-1" x1="134.86" y1="66.65" x2="140.79" y2="62.63"/><path class="cls-1" d="M120.1,93.78a4.35,4.35,0,0,1-3.38,3.29,7.3,7.3,0,0,0-4.47,2.89"/><path class="cls-1" d="M76.21,93.19a4.35,4.35,0,0,0,3.38,3.29,7.3,7.3,0,0,1,4.47,2.89"/></svg>