<svg id="Layer_1" data-name="Layer 1" xmlns="http://www.w3.org/2000/svg" viewBox="0 0 141.01 141.77"><defs><style>.cls-1{fill:#e6e6e6;}</style></defs><title>logo</title><path class="cls-1" d="M74,87.75A15.45,15.45,0,1,1,89.48,72.3,15.47,15.47,0,0,1,74,87.75Zm0-30.66A15.21,15.21,0,1,0,89.24,72.3,15.23,15.23,0,0,0,74,57.09Z"/><path class="cls-1" d="M74,107.28h-.24v-.12H74Zm0-.84h-.24v-.36H74Zm0-1.08h-.24V105H74Zm0-1.08h-.24v-.36H74Zm0-1.08h-.24v-.36H74Zm0-1.08h-.24v-.36H74Zm0-1.08h-.24v-.36H74ZM74,100h-.24v-.36H74Zm0-1.08h-.24v-.36H74Zm0-1.08h-.24v-.36H74Zm0-1.08h-.24V96.4H74Zm0-1.08h-.24v-.36H74Zm0-1.08h-.24v-.36H74Zm0-1.08h-.24v-.36H74Zm0-1.08h-.24v-.36H74Zm0-1.08h-.24V91H74Zm0-1.08h-.24v-.36H74Zm0-1.08h-.24v-.36H74Zm0-1.08h-.24v-.36H74Zm0-1.08h-.24v-.36H74ZM74,86h-.24v-.36H74Zm0-1.08h-.24v-.36H74Zm0-1.08h-.24v-.36H74Zm0-1.08h-.24V82.4H74Zm0-1.08h-.24v-.36H74Zm0-1.08h-.24v-.36H74Zm0-1.08h-.24v-.36H74Zm0-1.08h-.24v-.36H74Zm0-1.08h-.24V77H74Zm0-1.08h-.24v-.36H74Zm0-1.08h-.24v-.36H74Zm0-1.08h-.24v-.36H74Zm0-1.08h-.24v-.36H74ZM74,72h-.24v-.36H74Zm0-1.08h-.24v-.36H74Zm0-1.08h-.24v-.36H74Zm0-1.08h-.24v-.36H74Zm0-1.08h-.24v-.36H74Zm0-1.08h-.24v-.36H74Zm0-1.08h-.24v-.36H74Zm0-1.08h-.24V64.1H74Zm0-1.08h-.24V63H74Zm0-1.08h-.24v-.36H74Zm0-1.08h-.24v-.36H74Zm0-1.08h-.24v-.36H74Zm0-1.08h-.24v-.36H74ZM74,58h-.24v-.36H74Zm0-1.08h-.24v-.36H74Zm0-1.08h-.24v-.36H74Zm0-1.08h-.24v-.36H74Zm0-1.08h-.24v-.36H74Zm0-1.08h-.24v-.36H74Zm0-1.08h-.24v-.36H74Zm0-1.08h-.24V50.1H74Zm0-1.08h-.24V49H74Zm0-1.08h-.24V48H74Zm0-1.08h-.24v-.36H74Zm0-1.08h-.24V45.8H74Zm0-1.08h-.24v-.36H74ZM74,44h-.24v-.36H74Zm0-1.08h-.24v-.36H74Zm0-1.08h-.24v-.36H74Zm0-1.08h-.24v-.36H74Zm0-1.08h-.24v-.36H74Zm0-1.08h-.24v-.36H74Zm0-1.08h-.24v-.36H74Zm0-1.08h-.24v-.36H74Zm0-1.08h-.24V35H74Z"/><path class="cls-1" d="M81.34,70.84a2.76,2.76,0,0,1-1.83-.56A1.57,1.57,0,0,0,77.94,70h0a.25.25,0,0,1-.26,0,.19.19,0,0,1,0-.22,4.75,4.75,0,0,1,3.55-1.58c2.35,0,3.7,1.26,3.7,1.66a.19.19,0,0,1-.06.14.21.21,0,0,1-.14,0,2.92,2.92,0,0,0-1.65.39A3.1,3.1,0,0,1,81.34,70.84ZM78.59,69.7a1.66,1.66,0,0,1,1.06.39,2.53,2.53,0,0,0,1.69.52A2.87,2.87,0,0,0,83,70.21a3.12,3.12,0,0,1,1.72-.42,4.17,4.17,0,0,0-3.45-1.37,4.9,4.9,0,0,0-3.29,1.36A2.92,2.92,0,0,1,78.59,69.7Z"/><path class="cls-1" d="M74.21,76.86a1.13,1.13,0,0,1-.21,0l.05-.23a.86.86,0,0,0,1-.72.35.35,0,0,1,.2-.25,1.11,1.11,0,0,1,.76.08,22.24,22.24,0,0,1-.1-3.57c.16-2.7.86-4.51,2.08-5.39a5.09,5.09,0,0,1,4.84-.47,12.06,12.06,0,0,1,3.91,2.36l-.16.18a11.81,11.81,0,0,0-3.83-2.32,4.86,4.86,0,0,0-4.63.44c-2.78,2-1.87,8.87-1.86,8.94a.12.12,0,0,1-.17.12c-.21-.1-.59-.24-.75-.16a.11.11,0,0,0-.06.08A1.07,1.07,0,0,1,74.21,76.86Z"/><path class="cls-1" d="M76.49,84.35A4.07,4.07,0,0,0,74,83.48a3.51,3.51,0,0,0-2.34.86l-.17-.17A3.7,3.7,0,0,1,74,83.24a4.23,4.23,0,0,1,2.62.93Z"/><path class="cls-1" d="M81.3,71.16a1.56,1.56,0,0,1-1.29-1,1.73,1.73,0,0,1,.31-1.78l.18.11a1,1,0,0,0-.27,1.22c.18.4.58.44,1.07.44h0a1.12,1.12,0,0,0,1.11-.5,1.1,1.1,0,0,0-.16-1.23l.2-.09a1.91,1.91,0,0,1,.18,1.79,1.75,1.75,0,0,1-1.32,1Z"/><path class="cls-1" d="M66.89,70.84a3.1,3.1,0,0,1-1.73-.42A2.92,2.92,0,0,0,63.51,70a.21.21,0,0,1-.14,0,.19.19,0,0,1-.06-.14c0-.4,1.35-1.66,3.7-1.66a4.75,4.75,0,0,1,3.55,1.58.19.19,0,0,1,0,.22.25.25,0,0,1-.26,0h0a1.57,1.57,0,0,0-1.58.25A2.76,2.76,0,0,1,66.89,70.84Zm-3.33-1a3.13,3.13,0,0,1,1.72.42,2.87,2.87,0,0,0,1.62.39,2.53,2.53,0,0,0,1.69-.52,1.77,1.77,0,0,1,1.72-.3A4.9,4.9,0,0,0,67,68.42,4.17,4.17,0,0,0,63.56,69.79Z"/><path class="cls-1" d="M74,76.86a1.07,1.07,0,0,1-1.1-.91.11.11,0,0,0-.06-.08c-.16-.08-.55.06-.75.16a.12.12,0,0,1-.17-.12c0-.07.92-6.95-1.86-8.94a4.86,4.86,0,0,0-4.63-.44,11.81,11.81,0,0,0-3.83,2.32l-.16-.18c2.33-2.1,6-3.85,8.76-1.89,1.22.88,1.92,2.69,2.08,5.39a22.24,22.24,0,0,1-.1,3.57,1.11,1.11,0,0,1,.76-.08.35.35,0,0,1,.2.25.85.85,0,0,0,1,.72l.05.23A1.13,1.13,0,0,1,74,76.86Z"/><path class="cls-1" d="M66.93,71.16h0a1.72,1.72,0,0,1-1.32-1,1.67,1.67,0,0,1,.18-1.67l.2.09a.93.93,0,0,0-.16,1.12c.21.4.64.47,1.11.47h0c.49,0,.89-.06,1.07-.47a1.18,1.18,0,0,0-.27-1.34l.18-.11a2,2,0,0,1,.31,1.91A1.58,1.58,0,0,1,66.93,71.16Z"/><path class="cls-1" d="M73.63,81.06v-.24c1,0,.69-.09.93-.19a2.33,2.33,0,0,1,1.55-.16,7.23,7.23,0,0,0,2.41-.12h-.39A9.3,9.3,0,0,1,75.71,80l-.37-.09a.57.57,0,0,0-.43.14,1.16,1.16,0,0,1-.84.22l0-.24a.94.94,0,0,0,.68-.19.8.8,0,0,1,.61-.17l.39.1a8.91,8.91,0,0,0,2.36.36h1.62a.12.12,0,0,1,0,.24,11.35,11.35,0,0,1-3.65.35,2.38,2.38,0,0,0-1.5.15C74.4,81,74.63,81.06,73.63,81.06Z"/><path class="cls-1" d="M73.63,81.06s-.37-.11-.62-.21a1.54,1.54,0,0,0-1.2-.15,11,11,0,0,1-3.6-.35c-.06,0-.07-.07-.07-.13a.13.13,0,0,1,.13-.11H69.9a8.87,8.87,0,0,0,2.37-.36l.39-.1a.8.8,0,0,1,.61.17.94.94,0,0,0,.68.19l0,.24a1.16,1.16,0,0,1-.84-.22.58.58,0,0,0-.44-.14l-.38.09a9.27,9.27,0,0,1-2.43.37h-.42a6.94,6.94,0,0,0,2.36.12,1.52,1.52,0,0,1,1.25.16c.24.1.53.19.53.19Z"/><path class="cls-1" d="M73.94,82.22a4.57,4.57,0,0,1-2.49-.65l.14-.2a4.42,4.42,0,0,0,2.35.61,5.15,5.15,0,0,0,2.48-.61l.13.2A5.31,5.31,0,0,1,73.94,82.22Z"/><path class="cls-1" d="M61.87,101.17a.12.12,0,0,1-.11-.07L44.14,59.17a.12.12,0,0,1,.06-.16L86.14,41.39a.12.12,0,0,1,.16.06l17.62,41.93a.12.12,0,0,1-.06.16L61.92,101.16Zm-17.46-42,17.52,41.71,41.71-17.52L86.12,41.66Z"/><path class="cls-1" d="M74,103.55a.12.12,0,0,1-.08,0L41.78,71.36a.12.12,0,0,1,0-.17L73.94,39a.12.12,0,0,1,.17,0l32.16,32.16a.12.12,0,0,1,0,.17L74.11,103.52A.12.12,0,0,1,74,103.55ZM42,71.28l32,32,32-32-32-32Z"/><path class="cls-1" d="M59.7,58l-.24-.26.18-.16.24.26ZM59,57.18l-.24-.26.18-.16.24.26Zm-.73-.79L58,56.12l.18-.16.24.26Zm-.73-.79-.24-.26.18-.16.24.26Zm-.73-.79-.24-.26.18-.16.24.26ZM56.07,54l-.24-.26.18-.16.24.26Zm-.73-.79-.24-.26.18-.16.24.26Zm-.73-.79-.24-.26.18-.16.24.26Zm-.73-.79-.24-.26.18-.16.24.26Zm-.73-.79-.24-.27.18-.16.24.27ZM52.44,50l-.24-.26.18-.16.24.26Zm-.73-.79L51.47,49l.18-.16.24.26Zm-.72-.8-.24-.27.18-.16.24.27Zm-.71-.81L50,47.35l.18-.16.24.27Zm-.71-.81-.24-.27.18-.16.24.27ZM48.87,46l-.24-.27.18-.16.24.27Zm-.71-.81-.24-.27.18-.16.24.27Zm-.71-.81-.24-.27.18-.16.24.27Zm-.71-.81-.24-.27.18-.16.24.27ZM46,42.75l-.24-.27.18-.16.24.27Z"/><rect class="cls-1" x="54.81" y="47.33" width="0.24" height="10.46" transform="translate(-21.08 50.95) rotate(-42.52)"/><path class="cls-1" d="M103.11,101.19l-.09-.09.18-.16.09.09Zm-.57-.62-.24-.27.18-.16.24.27Zm-.72-.8-.24-.27.18-.16.24.27Zm-.72-.8-.24-.27.18-.16.24.27Zm-.72-.8-.24-.27.18-.16.24.27Zm-.72-.8-.24-.27.18-.16.24.27Zm-.72-.8-.24-.27.18-.16.24.27Zm-.72-.8-.24-.27.18-.16.24.27Zm-.72-.8-.24-.27.18-.16.24.27Zm-.72-.8-.24-.26.18-.16.24.27ZM96,93.4l-.24-.26.18-.16.24.26Zm-.73-.79L95,92.34l.18-.16.24.26Zm-.73-.79-.24-.26.18-.16.24.26ZM93.84,91l-.24-.27.18-.16.24.27Zm-.73-.79L92.87,90,93,89.8l.24.26Zm-.73-.79-.24-.26.18-.16.24.26Zm-.73-.79-.24-.26.18-.16.24.26Zm-.73-.79-.24-.26.18-.16.24.26ZM90.21,87,90,86.78l.18-.16.24.26Z"/><rect class="cls-1" x="95.12" y="90.24" width="0.24" height="4.28" transform="translate(-37.39 88.67) rotate(-42.52)"/><path class="cls-1" d="M54.37,74.31l-.36,0v-.24l.36,0Zm-1.08,0-.36,0V74l.36,0Zm-1.08,0-.36,0V74l.36,0Zm-1.08,0-.36,0v-.24l.36,0Zm-1.08,0-.36,0v-.24l.36,0Zm-1.08,0-.36,0v-.24l.36,0Zm-1.08,0-.36,0v-.24l.36,0Zm-1.08,0-.36,0v-.24l.36,0Zm-1.08,0-.36,0v-.24l.36,0Zm-1.08,0-.36,0v-.24l.36,0Zm-1.08,0-.36,0v-.24l.36,0Zm-1.08,0-.36,0v-.24l.36,0Zm-1.08-.06-.36,0,0-.24.36,0Zm-1.07-.07-.36,0,0-.24.36,0Zm-1.07-.07-.36,0,0-.24.36,0Zm-1.07-.07-.36,0,0-.24.36,0Zm-1.07-.07-.36,0,0-.24.36,0Zm-1.07-.07-.36,0,0-.24.36,0ZM35,73.28l-.36,0,0-.24L35,73Zm-1.07-.07-.36,0,0-.24L34,73Z"/><rect class="cls-1" x="47.04" y="68.63" width="0.24" height="10.46" transform="translate(-28.66 117.78) rotate(-87.52)"/><path class="cls-1" d="M115.62,74.18h-.13v-.24h.13Zm-.84,0-.36,0v-.24l.36,0Zm-1.08-.05-.36,0v-.24l.36,0ZM112.62,74l-.36,0v-.24l.36,0ZM111.55,74l-.36,0v-.24l.36,0Zm-1.08-.05-.36,0v-.24l.36,0Zm-1.08-.05-.36,0v-.24l.36,0Zm-1.08-.05-.36,0v-.24l.36,0Zm-1.08-.05-.36,0v-.24l.36,0Zm-1.08-.05-.36,0v-.24l.36,0Zm-1.08,0-.36,0v-.24l.36,0Zm-1.08,0-.36,0v-.24l.36,0Zm-1.08,0-.36,0v-.24l.36,0Zm-1.08,0-.36,0v-.24l.36,0Zm-1.08,0-.36,0v-.24l.36,0Zm-1.08,0-.36,0v-.24l.36,0Zm-1.08,0-.36,0v-.24l.36,0Zm-1.08,0-.36,0v-.24l.36,0Zm-1.08,0-.36,0V73l.36,0Z"/><rect class="cls-1" x="103.71" y="71.37" width="0.24" height="4.28" transform="translate(25.9 174.06) rotate(-87.52)"/><path class="cls-1" d="M41.38,97.63l-.13-.2.3-.19.13.2Zm.91-.58-.13-.2.3-.19.13.2Zm.91-.58-.13-.2.3-.19.13.2Zm.91-.58-.13-.2.3-.19.13.2ZM45,95.3l-.13-.2.3-.19.13.2Zm.91-.58-.13-.2.3-.19.13.2Zm.91-.58-.13-.2.3-.19.13.2Zm.91-.58-.13-.2.3-.19.13.2Zm.9-.59-.13-.2.3-.2.13.2Zm.89-.6-.13-.2.3-.2.13.2Zm.89-.6-.13-.2.3-.2.13.2Zm.89-.6-.13-.2.3-.2.13.2Zm.89-.6-.13-.2.3-.2.13.2Zm.89-.6-.13-.2.3-.2.13.2Zm.89-.6-.13-.2.3-.2.13.2Zm.89-.6-.13-.2.3-.2.13.2Zm.89-.6-.13-.2.3-.2.13.2Zm.89-.6-.13-.2.3-.2.13.2Zm.89-.6-.13-.2.3-.2.13.2Zm.89-.6-.13-.2.3-.2.13.2Z"/><rect class="cls-1" x="47.46" y="89.95" width="10.46" height="0.24" transform="translate(-41.46 45.07) rotate(-34.13)"/><path class="cls-1" d="M91.65,60.39l-.13-.2.3-.2.13.2Zm.89-.6-.13-.2.3-.2.13.2Zm.89-.6L93.3,59l.3-.2.13.2Zm.89-.6-.13-.2.3-.2.13.2Zm.89-.6-.13-.2.3-.2.13.2Zm.89-.6-.13-.2.3-.2.13.2Zm.89-.6-.13-.2.3-.2.13.2Zm.89-.6-.13-.2.3-.2.13.2Zm.89-.6-.13-.2.3-.2.13.2Zm.89-.6-.13-.2.3-.2.13.2Zm.89-.6-.13-.2.3-.2.13.2Zm.89-.6-.13-.2.3-.2.13.2Zm.89-.6-.13-.2.3-.2.13.2Zm.89-.6-.13-.2.3-.2.13.2Zm.89-.6-.13-.2.3-.2.13.2Zm.89-.6-.13-.2.3-.2.13.2Zm.89-.6-.13-.2.3-.2.13.2Zm.89-.6-.13-.2.3-.2.13.2Zm.89-.6-.13-.2.1-.07.13.2Z"/><rect class="cls-1" x="95.82" y="55.87" width="4.28" height="0.24" transform="translate(-14.54 64.6) rotate(-34.13)"/><path class="cls-1" d="M82.67,77.25h0a.13.13,0,0,1-.08-.13h.24A.11.11,0,0,0,82.6,77l.06-.07a4.17,4.17,0,0,1,2.66-1.69,2.46,2.46,0,0,0,1.93-1.87l.24,0a2.75,2.75,0,0,1-2.12,2.06,3.94,3.94,0,0,0-2.51,1.6C82.78,77.19,82.74,77.25,82.67,77.25Z"/><path class="cls-1" d="M65.8,76.89c-.07,0-.11-.06-.17-.15a3.94,3.94,0,0,0-2.51-1.6A2.75,2.75,0,0,1,61,73.08l.24,0a2.46,2.46,0,0,0,1.93,1.87,4.17,4.17,0,0,1,2.66,1.69l.06.07a.11.11,0,0,0-.19.08h.24a.13.13,0,0,1-.08.13Z"/></svg>