<svg xmlns="http://www.w3.org/2000/svg" viewBox="0 0 199.56 104.25"><defs><style>.cls-1{fill:none;stroke:#ccc;stroke-linecap:round;stroke-linejoin:round;stroke-width:3px;}</style></defs><title>timerGlyphL</title><g id="amphai"><g id="Layer_5" data-name="Layer 5"><path class="cls-1" d="M90.56,44.86H112V35.33H42.72V26.7H121v5a28.33,28.33,0,0,1,18.32-6.24c15,0,27.28,10.88,27.28,26.08s-11.44,26.08-27.28,26.08A28.4,28.4,0,0,1,121,71.18v5.28H41.44V67.82H112V53.5H90.56l-1.84,1.84-6.16-6.16L88.72,43Zm30.8,6.72c0,10.08,8.08,17.12,17.92,17.12,10.48,0,17.92-7,17.92-17.12s-8.08-17.12-17.92-17.12C128.8,34.46,121.36,41.5,121.36,51.58Zm11.76,0,6.16-6.16,6.16,6.16-6.16,6.16Z"/></g></g></svg>