<svg xmlns="http://www.w3.org/2000/svg" viewBox="0 0 197.37 105.29"><defs><style>.cls-1{fill:none;stroke:#ccc;stroke-linecap:round;stroke-linejoin:round;stroke-width:3px;}</style></defs><title>timerGlyphR</title><g id="amphai"><g id="Layer_5" data-name="Layer 5"><path class="cls-1" d="M113.78,45l6.16,6.16-6.16,6.16-1.84-1.84H90.5V69.82h70.56v8.64H81.54V73.18a28.4,28.4,0,0,1-18.32,6.48c-15.84,0-27.28-10.88-27.28-26.08S48.18,27.5,63.22,27.5a28.33,28.33,0,0,1,18.32,6.24v-5h78.24v8.64H90.5v9.52h21.44ZM63.22,36.46c-9.84,0-17.92,7-17.92,17.12S52.74,70.7,63.22,70.7c9.84,0,17.92-7,17.92-17.12S73.7,36.46,63.22,36.46Zm0,23.28-6.16-6.16,6.16-6.16,6.16,6.16Z"/></g></g></svg>